<?xml version="1.0" encoding="UTF-8"?>
<svg version="1.1" xmlns="http://www.w3.org/2000/svg" width="256" height="256">
<path d="M0 0 C3.4888811 0.87222028 4.88165 1.39569512 7.65234375 3.37109375 C8.33965576 3.85771484 9.02696777 4.34433594 9.73510742 4.84570312 C10.82529175 5.63364258 10.82529175 5.63364258 11.9375 6.4375 C12.69458252 6.97955078 13.45166504 7.52160156 14.23168945 8.08007812 C38.69345802 25.68285243 63.33698576 45.82063335 82.08984375 69.5859375 C83.85052279 71.81109015 85.68034029 73.94015749 87.5625 76.0625 C90 79 90 79 90 81 C90.66 81 91.32 81 92 81 C92.26296875 80.42894531 92.5259375 79.85789062 92.796875 79.26953125 C104.64320882 56.92303791 132.06333566 33.92645245 154 22 C152.68516427 24.91834217 151.28366724 26.94920929 148.98828125 29.171875 C148.39901855 29.74945557 147.80975586 30.32703613 147.20263672 30.92211914 C146.5788916 31.52531982 145.95514648 32.12852051 145.3125 32.75 C140.98118376 37.00761726 136.74603367 41.25548281 132.82421875 45.8984375 C130.85887963 48.1625755 128.81096633 50.34009596 126.75390625 52.52075195 C120.34341054 59.34189507 114.46769218 66.40258584 109 74 C108.53190918 74.64888184 108.06381836 75.29776367 107.58154297 75.96630859 C106.13957171 77.98583972 104.72192526 80.02014989 103.3125 82.0625 C102.86567871 82.69397949 102.41885742 83.32545898 101.95849609 83.97607422 C99.61509512 87.19545456 99.61509512 87.19545456 99.26611328 90.99072266 C100.50642614 94.38652265 102.5999277 97.29852386 104.5625 100.3125 C126.5705197 134.93871347 141.01284802 176.97238205 144 218 C145.09054688 218.07347656 145.09054688 218.07347656 146.203125 218.1484375 C153.5589333 218.69540786 160.74522224 219.67510264 168 221 C168.33 222.32 168.66 223.64 169 225 C161.41 225.33 153.82 225.66 146 226 C146.9843186 233.06047719 146.9843186 233.06047719 147.97460938 240.12011719 C148.09642578 241.00344727 148.21824219 241.88677734 148.34375 242.796875 C148.46943359 243.69760742 148.59511719 244.59833984 148.72460938 245.52636719 C149 248 149 248 149 252 C91.25 252 33.5 252 -26 252 C-24 247 -24 247 -21.52905273 245.48608398 C-20.50755127 245.07688721 -19.4860498 244.66769043 -18.43359375 244.24609375 C-17.30759766 243.78396484 -16.18160156 243.32183594 -15.02148438 242.84570312 C-13.83876953 242.38099609 -12.65605469 241.91628906 -11.4375 241.4375 C-9.12347684 240.49924298 -6.80967065 239.56045064 -4.49609375 238.62109375 C-3.46669678 238.2130249 -2.4372998 237.80495605 -1.37670898 237.38452148 C1.78968211 236.15127071 1.78968211 236.15127071 3.87209129 235.00575733 C10.33295494 231.70246039 15.96223001 231.45212178 23.12915039 231.54589844 C24.90139481 231.54502228 24.90139481 231.54502228 26.70944214 231.54412842 C30.58915254 231.54690051 34.46808113 231.57795292 38.34765625 231.609375 C41.04763865 231.61907283 43.74762028 231.62272889 46.44761658 231.62652588 C52.81169932 231.63891611 59.17550441 231.67168343 65.53946537 231.71192384 C72.78979908 231.75676543 80.04014664 231.77865957 87.29058468 231.79870558 C102.19387733 231.84042017 117.09691078 231.91069435 132 232 C131.67 229.69 131.34 227.38 131 225 C97.34 225 63.68 225 29 225 C31.95652361 213.17390555 35.32681213 201.6102432 39 190 C39.19762939 189.37492554 39.39525879 188.74985107 39.59887695 188.10583496 C47.20746828 164.09560616 55.68745623 140.66838389 67.34375 118.26953125 C69.05458185 114.89225233 70.54417454 111.49309341 72 108 C56.11626191 95.41086526 39.22877274 83.95787799 21 75 C19.32529459 78.89006737 18.24576158 82.74566024 17.265625 86.86328125 C17.10701996 87.52441422 16.94841492 88.18554718 16.78500366 88.86671448 C16.44583883 90.28191777 16.10830894 91.69751371 15.77227783 93.11346436 C15.24583818 95.33002323 14.71431293 97.54530267 14.18115234 99.76025391 C13.46246136 102.74599847 12.74478322 105.73198169 12.02832031 108.71826172 C10.57454169 114.77397706 9.11090167 120.82707811 7.625 126.875 C7.3868457 127.86540283 7.14869141 128.85580566 6.90332031 129.8762207 C6.5683252 131.23299927 6.5683252 131.23299927 6.2265625 132.6171875 C6.03658691 133.39690918 5.84661133 134.17663086 5.65087891 134.97998047 C5 137 5 137 3 140 C2.34 140 1.68 140 1 140 C0.67 93.8 0.34 47.6 0 0 Z M83 119 C71.16979208 146.41176287 62.82684133 175.37574597 59 205 C66.92989513 206.97111941 74.95215497 208.03666098 83.03945923 209.11709595 C94.94750985 210.70813965 106.82735864 212.33919665 118.64453125 214.51953125 C122.14057644 215.02012911 125.47317233 215.0857999 129 215 C126.154259 182.53532208 112.45247558 152.80387182 92.31347656 127.66601562 C91.24792821 126.31447251 90.23625684 124.92057633 89.2421875 123.515625 C88.83226562 123.01546875 88.42234375 122.5153125 88 122 C87.34 122 86.68 122 86 122 C85.67 121.01 85.34 120.02 85 119 C84.34 119 83.68 119 83 119 Z " fill="#2F425E" transform="translate(56,2)"/>
<path d="M0 0 C0 3 0 3 -1.26586914 4.59057617 C-2.14166626 5.4332605 -2.14166626 5.4332605 -3.03515625 6.29296875 C-3.67606201 6.91896973 -4.31696777 7.5449707 -4.97729492 8.18994141 C-6.00947144 9.17873291 -6.00947144 9.17873291 -7.0625 10.1875 C-8.45747733 11.55159997 -9.85073275 12.91746324 -11.2421875 14.28515625 C-12.18747314 15.20373413 -12.18747314 15.20373413 -13.15185547 16.14086914 C-15.63027055 18.6340172 -17.94675178 21.24559891 -20.2109375 23.93359375 C-22.16193133 26.18703422 -24.19877879 28.35069702 -26.24389648 30.51855469 C-32.65538905 37.3401832 -38.53171016 44.40175538 -44 52 C-44.46809082 52.64888184 -44.93618164 53.29776367 -45.41845703 53.96630859 C-46.86042829 55.98583972 -48.27807474 58.02014989 -49.6875 60.0625 C-50.13432129 60.69397949 -50.58114258 61.32545898 -51.04150391 61.97607422 C-53.38490488 65.19545456 -53.38490488 65.19545456 -53.73388672 68.99072266 C-52.49357386 72.38652265 -50.4000723 75.29852386 -48.4375 78.3125 C-26.4294803 112.93871347 -11.98715198 154.97238205 -9 196 C-7.90945312 196.07347656 -7.90945312 196.07347656 -6.796875 196.1484375 C0.5589333 196.69540786 7.74522224 197.67510264 15 199 C15.33 200.32 15.66 201.64 16 203 C8.41 203.33 0.82 203.66 -7 204 C-6.0156814 211.06047719 -6.0156814 211.06047719 -5.02539062 218.12011719 C-4.90357422 219.00344727 -4.78175781 219.88677734 -4.65625 220.796875 C-4.53056641 221.69760742 -4.40488281 222.59833984 -4.27539062 223.52636719 C-4 226 -4 226 -4 230 C-61.75 230 -119.5 230 -179 230 C-177 225 -177 225 -174.54492188 223.48608398 C-173.52978516 223.07688721 -172.51464844 222.66769043 -171.46875 222.24609375 C-170.34726563 221.78396484 -169.22578125 221.32183594 -168.0703125 220.84570312 C-166.89210938 220.38099609 -165.71390625 219.91628906 -164.5 219.4375 C-163.35273438 218.96892578 -162.20546875 218.50035156 -161.0234375 218.01757812 C-157.68928052 216.65999143 -154.34627335 215.32741439 -151 214 C-150.30819358 213.67065083 -149.61638716 213.34130165 -148.90361691 213.0019722 C-142.03604255 209.8893017 -136.18297802 209.48175785 -128.71313477 209.65356445 C-127.52655777 209.66434021 -126.33998077 209.67511597 -125.1174469 209.68621826 C-121.22494356 209.72614226 -117.33350126 209.79472551 -113.44140625 209.86328125 C-110.72765908 209.89814169 -108.01385528 209.926503 -105.30003357 209.95487976 C-98.90399774 210.02521282 -92.50841875 210.11548857 -86.11275858 210.21384829 C-76.71298996 210.35768115 -67.31288349 210.47530363 -57.91269588 210.58806896 C-57.22293323 210.59634647 -56.53317057 210.60462398 -55.82250601 210.61315233 C-54.44753237 210.62962723 -53.07255792 210.64603518 -51.69758266 210.6623742 C-47.02629973 210.71873558 -42.35529654 210.78680739 -37.68421936 210.85823059 C-35.24984877 210.89167013 -32.81547689 210.92501576 -30.38110352 210.95825195 C-29.26680969 210.97748215 -28.15251587 210.99671234 -27.00445557 211.01652527 C-25.48015678 211.03575546 -25.48015678 211.03575546 -23.92506409 211.05537415 C-23.0411477 211.06886556 -22.15723131 211.08235697 -21.24652958 211.09625721 C-18.82897028 211.09594945 -18.82897028 211.09594945 -16 210 C-16.16757813 209.21496094 -16.33515625 208.42992187 -16.5078125 207.62109375 C-17.70520358 201.44467773 -18.59494914 196.83863557 -16 191 C-15.34 190.67 -14.68 190.34 -14 190 C-15.97701247 161.64009696 -25.30059813 133.76955752 -36.5625 107.875 C-37.00940186 106.84391113 -37.45630371 105.81282227 -37.91674805 104.75048828 C-40.8356992 98.18351437 -44.19327845 92.08939614 -48 86 C-48.63164062 84.92492187 -49.26328125 83.84984375 -49.9140625 82.7421875 C-56.71218607 71.34989823 -64.47108696 60.07289182 -73.890625 50.67578125 C-75.39785381 48.39901661 -75.20008245 46.6692818 -75 44 C-71.94433539 46.96306871 -69.02864172 50.01720161 -66.1875 53.1875 C-65.58292969 53.86167969 -64.97835937 54.53585938 -64.35546875 55.23046875 C-63 57 -63 57 -63 59 C-62.34 59 -61.68 59 -61 59 C-60.73703125 58.42894531 -60.4740625 57.85789063 -60.203125 57.26953125 C-48.03180997 34.31000517 -21.35076161 13.91135561 0 0 Z " fill="#243755" transform="translate(209,24)"/>
<path d="M0 0 C1.13179688 0.58910156 2.26359375 1.17820312 3.4296875 1.78515625 C4.91124428 2.54468852 6.39302687 3.30378042 7.875 4.0625 C8.62136719 4.45244141 9.36773437 4.84238281 10.13671875 5.24414062 C10.85214844 5.60830078 11.56757812 5.97246094 12.3046875 6.34765625 C12.96452637 6.68804932 13.62436523 7.02844238 14.30419922 7.37915039 C14.86381348 7.58403076 15.42342773 7.78891113 16 8 C16.66 7.67 17.32 7.34 18 7 C26.88402319 10.54691698 34.59616912 16.86523179 42.15527344 22.60498047 C43.86636805 23.89894482 45.59036996 25.1728164 47.3203125 26.44140625 C59.93260487 35.84639577 71.5522498 46.36781259 81 59 C81.78503906 60.00804687 82.57007813 61.01609375 83.37890625 62.0546875 C103.22011037 88.10457089 119 127.90191235 119 161 C118.34 161 117.68 161 117 161 C116.67 161.66 116.34 162.32 116 163 C55.61 162.505 55.61 162.505 -6 162 C-6 161.67 -6 161.34 -6 161 C33.6 161 73.2 161 114 161 C113.505 157.535 113.505 157.535 113 154 C79.34 154 45.68 154 11 154 C13.95652361 142.17390555 17.32681213 130.6102432 21 119 C21.19762939 118.37492554 21.39525879 117.74985107 21.59887695 117.10583496 C29.20746828 93.09560616 37.68745623 69.66838389 49.34375 47.26953125 C51.05458185 43.89225233 52.54417454 40.49309341 54 37 C38.11626191 24.41086526 21.22877274 12.95787799 3 4 C2.34 5.65 1.68 7.3 1 9 C0.67 9 0.34 9 0 9 C0 6 0 3 0 0 Z M65 48 C53.16979208 75.41176287 44.82684133 104.37574597 41 134 C48.92989513 135.97111941 56.95215497 137.03666098 65.03945923 138.11709595 C76.94750985 139.70813965 88.82735864 141.33919665 100.64453125 143.51953125 C104.14057644 144.02012911 107.47317233 144.0857999 111 144 C108.154259 111.53532208 94.45247558 81.80387182 74.31347656 56.66601562 C73.24792821 55.31447251 72.23625684 53.92057633 71.2421875 52.515625 C70.83226562 52.01546875 70.42234375 51.5153125 70 51 C69.34 51 68.68 51 68 51 C67.67 50.01 67.34 49.02 67 48 C66.34 48 65.68 48 65 48 Z " fill="#182539" transform="translate(74,73)"/>
<path d="M0 0 C2.36516806 0.94606722 3.74937859 1.64701765 5.23974609 3.74609375 C6.29215151 6.86613448 5.5182047 8.28595318 4.2890625 11.3125 C3.87237305 12.3732373 3.45568359 13.43397461 3.02636719 14.52685547 C2.56391602 15.67299316 2.10146484 16.81913086 1.625 18 C0.67683485 20.45829161 -0.26553866 22.91762024 -1.1953125 25.3828125 C-1.43374878 26.01454376 -1.67218506 26.64627502 -1.91784668 27.29714966 C-9.13549775 46.63990074 -13.46925437 66.7757509 -17.40136719 86.98974609 C-18.20075413 91.0095018 -19.08932986 95.00411559 -20 99 C-19.3421199 99.05156754 -18.68423981 99.10313507 -18.00642395 99.15626526 C-11.03382445 99.74130257 -4.16790007 100.66435435 2.73828125 101.77734375 C3.82151169 101.94875381 4.90474213 102.12016388 6.02079773 102.29676819 C9.45191367 102.84028976 12.88223315 103.38864763 16.3125 103.9375 C20.82917803 104.65652058 25.34616951 105.37355336 29.86328125 106.08984375 C31.47035446 106.34512344 31.47035446 106.34512344 33.1098938 106.6055603 C40.73013141 107.81160955 48.35552807 108.95682559 56 110 C56 110.66 56 111.32 56 112 C23.66 112 -8.68 112 -42 112 C-43.08129348 104.43094564 -43.08129348 104.43094564 -40.09558105 99.82232666 C-38.20663179 96.68035684 -37.30431514 93.23802191 -36.265625 89.7421875 C-35.77328302 88.14135487 -35.28093244 86.5405249 -34.78857422 84.93969727 C-34.53750916 84.11220978 -34.28644409 83.28472229 -34.027771 82.43215942 C-29.55828887 67.73737342 -24.91279616 53.18790852 -19 39 C-18.61102539 38.06172363 -18.22205078 37.12344727 -17.82128906 36.15673828 C-4.68131119 4.68131119 -4.68131119 4.68131119 0 0 Z " fill="#A6BAD8" transform="translate(131,113)"/>
<path d="M0 0 C0 3 0 3 -1.26586914 4.59057617 C-2.14166626 5.4332605 -2.14166626 5.4332605 -3.03515625 6.29296875 C-3.67606201 6.91896973 -4.31696777 7.5449707 -4.97729492 8.18994141 C-5.6654126 8.84913574 -6.35353027 9.50833008 -7.0625 10.1875 C-8.45747733 11.55159997 -9.85073275 12.91746324 -11.2421875 14.28515625 C-11.87237793 14.8975415 -12.50256836 15.50992676 -13.15185547 16.14086914 C-15.63027055 18.6340172 -17.94675178 21.24559891 -20.2109375 23.93359375 C-22.16193133 26.18703422 -24.19877879 28.35069702 -26.24389648 30.51855469 C-32.65538905 37.3401832 -38.53171016 44.40175538 -44 52 C-44.46809082 52.64888184 -44.93618164 53.29776367 -45.41845703 53.96630859 C-46.86042829 55.98583972 -48.27807474 58.02014989 -49.6875 60.0625 C-50.13432129 60.69397949 -50.58114258 61.32545898 -51.04150391 61.97607422 C-53.38490488 65.19545456 -53.38490488 65.19545456 -53.73388672 68.99072266 C-52.49357386 72.38652265 -50.4000723 75.29852386 -48.4375 78.3125 C-31.50948068 104.94611895 -20.81973937 134.3426831 -13.875 165.0625 C-13.71852997 165.74928833 -13.56205994 166.43607666 -13.40084839 167.14367676 C-10.81142314 178.62284628 -10.81142314 178.62284628 -12 181 C-16.06306946 174.89667677 -17.39746457 168.87346149 -18.875 161.75 C-27.607483 122.17852755 -44.71044771 79.78648193 -73.890625 50.67578125 C-75.39785381 48.39901661 -75.20008245 46.6692818 -75 44 C-71.94433539 46.96306871 -69.02864172 50.01720161 -66.1875 53.1875 C-65.28064453 54.19876953 -65.28064453 54.19876953 -64.35546875 55.23046875 C-63 57 -63 57 -63 59 C-62.34 59 -61.68 59 -61 59 C-60.73703125 58.42894531 -60.4740625 57.85789063 -60.203125 57.26953125 C-48.03180997 34.31000517 -21.35076161 13.91135561 0 0 Z " fill="#172437" transform="translate(209,24)"/>
<path d="M0 0 C5.18259583 2.72171335 9.16038445 6.68818461 11.03515625 12.3125 C11.56937729 18.28139281 11.56822347 23.24843698 8.03515625 28.3125 C3.81966641 32.5510253 0.2152702 34.45203707 -5.77734375 34.5625 C-11.15281188 34.47667975 -14.74221649 33.57173524 -18.625 29.625 C-23.04910427 24.60473983 -24.32387068 21.65539538 -24.24609375 14.91796875 C-23.68756262 9.74379839 -21.27573754 6.52507676 -17.46484375 3 C-11.89054519 -0.76265153 -6.59739073 -2.30843095 0 0 Z " fill="#2C4468" transform="translate(153.96484375,159.6875)"/>
<path d="M0 0 C3.4888811 0.87222028 4.88165 1.39569512 7.65234375 3.37109375 C8.33965576 3.85771484 9.02696777 4.34433594 9.73510742 4.84570312 C10.46189697 5.37099609 11.18868652 5.89628906 11.9375 6.4375 C12.69458252 6.97955078 13.45166504 7.52160156 14.23168945 8.08007812 C28.57711104 18.40309372 42.08536843 29.51544506 55.125 41.4375 C55.92357422 42.16332275 55.92357422 42.16332275 56.73828125 42.90380859 C59.80128069 45.73550827 62.47941474 48.67741034 65 52 C57.67768851 50.91521311 51.27932072 42.98810691 45.9765625 38.15625 C39.83092928 32.58177229 33.36864275 27.47534889 26.80957031 22.40234375 C25.03192078 21.02473731 23.26144771 19.63835708 21.4921875 18.25 C20.37003134 17.37469265 19.24764488 16.49968044 18.125 15.625 C17.13757813 14.85414062 16.15015625 14.08328125 15.1328125 13.2890625 C11.53331135 10.65900306 7.80919061 8.31120792 4 6 C4.0407666 6.68022217 4.0815332 7.36044434 4.12353516 8.0612793 C5.27293959 28.98281341 4.84152371 49.82285422 4.125 70.75 C4.10226265 71.42473232 4.0795253 72.09946465 4.05609894 72.7946434 C3.90151603 77.37899869 3.73852894 81.96299562 3.5703125 86.546875 C3.52853882 87.70953384 3.48676514 88.87219269 3.44372559 90.07008362 C3.14724014 97.73105577 2.64030295 105.36022499 2 113 C2.66 113 3.32 113 4 113 C4 112.01 4 111.02 4 110 C8.75 108 8.75 108 11 108 C10.66072909 114.89850856 9.30488548 121.27921063 7.5625 127.9375 C7.34505127 128.77837158 7.12760254 129.61924316 6.90356445 130.4855957 C6.68917725 131.28312256 6.47479004 132.08064941 6.25390625 132.90234375 C5.96495483 133.97730103 5.96495483 133.97730103 5.67016602 135.07397461 C5 137 5 137 3 140 C2.34 140 1.68 140 1 140 C0.67 93.8 0.34 47.6 0 0 Z " fill="#182539" transform="translate(56,2)"/>
<path d="M0 0 C0 3 0 3 -1.26586914 4.59057617 C-1.84973389 5.15236572 -2.43359863 5.71415527 -3.03515625 6.29296875 C-3.99651489 7.23197021 -3.99651489 7.23197021 -4.97729492 8.18994141 C-6.00947144 9.17873291 -6.00947144 9.17873291 -7.0625 10.1875 C-8.45747733 11.55159997 -9.85073275 12.91746324 -11.2421875 14.28515625 C-11.87237793 14.8975415 -12.50256836 15.50992676 -13.15185547 16.14086914 C-15.62818312 18.63191736 -17.94243365 21.24202934 -20.20703125 23.92578125 C-23.18452936 27.37033789 -26.33026591 30.66102481 -29.44018555 33.98583984 C-33.58068968 38.45266026 -37.3664586 43.10907074 -41.0625 47.953125 C-43 50 -43 50 -44.95996094 50.41674805 C-47.57995852 51.1658115 -48.12903094 52.10993003 -49.578125 54.37890625 C-50.01640625 55.05244141 -50.4546875 55.72597656 -50.90625 56.41992188 C-51.3496875 57.12697266 -51.793125 57.83402344 -52.25 58.5625 C-52.70890625 59.27341797 -53.1678125 59.98433594 -53.640625 60.71679688 C-54.77093497 62.47113214 -55.88687103 64.23471341 -57 66 C-57.99 65.34 -58.98 64.68 -60 64 C-59.57871253 59.06360982 -57.05150595 56.24085293 -53.875 52.6875 C-53.37508545 52.11281982 -52.8751709 51.53813965 -52.36010742 50.94604492 C-50.91579781 49.28911055 -49.46007421 47.64304221 -48 46 C-46.77016842 44.60475247 -45.54087582 43.20902935 -44.3125 41.8125 C-43.77238281 41.2040625 -43.23226562 40.595625 -42.67578125 39.96875 C-40.69832068 37.64557954 -38.85984647 35.23065602 -37 32.8125 C-33.68424081 28.60824611 -30.43026919 25.95351279 -26 23 C-24.34329588 21.09663191 -24.34329588 21.09663191 -23 19 C-19.1714527 13.95295083 -14.92177342 10.40039281 -9.8125 6.6875 C-8.72678711 5.8821582 -8.72678711 5.8821582 -7.61914062 5.06054688 C-2.3557363 1.17786815 -2.3557363 1.17786815 0 0 Z " fill="#1B2B41" transform="translate(209,24)"/>
<path d="M0 0 C5.18259583 2.72171335 9.16038445 6.68818461 11.03515625 12.3125 C11.56937729 18.28139281 11.56822347 23.24843698 8.03515625 28.3125 C3.81966641 32.5510253 0.2152702 34.45203707 -5.77734375 34.5625 C-11.15281188 34.47667975 -14.74221649 33.57173524 -18.625 29.625 C-23.04910427 24.60473983 -24.32387068 21.65539538 -24.24609375 14.91796875 C-23.68756262 9.74379839 -21.27573754 6.52507676 -17.46484375 3 C-11.89054519 -0.76265153 -6.59739073 -2.30843095 0 0 Z M-19.96484375 10.3125 C-20.69403102 16.63843634 -20.89016039 23.0336259 -16.96484375 28.3125 C-13.04414202 31.98815787 -8.67328333 31.75280332 -3.55859375 31.6015625 C0.66333871 31.13104593 2.85822847 29.61196506 5.6484375 26.53125 C7.34401412 23.81832741 7.34768542 22.22990559 7.22265625 19.0625 C7.19558594 18.17046875 7.16851562 17.2784375 7.140625 16.359375 C7.08841797 15.34617188 7.08841797 15.34617188 7.03515625 14.3125 C6.37515625 14.3125 5.71515625 14.3125 5.03515625 14.3125 C5.03515625 15.3025 5.03515625 16.2925 5.03515625 17.3125 C4.37515625 17.3125 3.71515625 17.3125 3.03515625 17.3125 C3.15890625 16.260625 3.28265625 15.20875 3.41015625 14.125 C3.38656005 10.17432079 3.38656005 10.17432079 0.59765625 7.4375 C-7.02228123 2.01527499 -13.68849886 4.03615511 -19.96484375 10.3125 Z " fill="#172438" transform="translate(153.96484375,159.6875)"/>
<path d="M0 0 C12.12015381 5.24114759 20.84577346 20.44915673 28 31 C28.54140625 31.73605469 29.0828125 32.47210938 29.640625 33.23046875 C37.87439145 45.02322303 43.2473241 59.62507607 47.31542969 73.35107422 C47.87674691 75.21111952 47.87674691 75.21111952 50 76 C50.33 73.36 50.66 70.72 51 68 C51.66 68 52.32 68 53 68 C59.3538961 96.03733766 59.3538961 96.03733766 59 104 C58.01 104 57.02 104 56 104 C55.67 105.98 55.34 107.96 55 110 C52.52529484 107.52529484 52.4164354 106.04585559 51.73828125 102.63671875 C51.51043945 101.53279785 51.28259766 100.42887695 51.04785156 99.29150391 C50.80518555 98.10218262 50.56251953 96.91286133 50.3125 95.6875 C42.71881602 60.32036052 28.2293943 31.18418171 3.45336914 4.79418945 C0 1.10090854 0 1.10090854 0 0 Z " fill="#3F6194" transform="translate(137,112)"/>
<path d="M0 0 C0.99 0.33 1.98 0.66 3 1 C2.54554036 2.41791408 2.08625056 3.83428046 1.625 5.25 C1.36976562 6.03890625 1.11453125 6.8278125 0.8515625 7.640625 C0 10 0 10 -1.1015625 12.171875 C-2.14702216 13.95966379 -2.14702216 13.95966379 -2 16 C-1.23300781 15.9278125 -0.46601562 15.855625 0.32421875 15.78125 C8.81302734 15.07138447 17.19885859 14.92066815 25.71362305 15.03710938 C30.29579178 15.08187645 34.47264572 14.792287 39 14 C39.66 14.33 40.32 14.66 41 15 C41 14.34 41 13.68 41 13 C42.98 13.33 44.96 13.66 47 14 C43.92000054 10.32769295 41.7517398 9.43197635 37 9 C37.33 8.34 37.66 7.68 38 7 C39.86011719 7.25523437 39.86011719 7.25523437 41.7578125 7.515625 C43.54686258 7.76050745 45.33592631 8.00529011 47.125 8.25 C48.08390137 8.38132324 49.04280273 8.51264648 50.03076172 8.64794922 C56.01855712 9.46528282 62.00820478 10.2672398 68 11.0546875 C69.3605179 11.23402231 70.72103224 11.41338423 72.08154297 11.59277344 C74.09733791 11.85852191 76.11322147 12.12346712 78.12945557 12.38586426 C80.02667447 12.63280742 81.92350162 12.88275461 83.8203125 13.1328125 C84.91617676 13.27605957 86.01204102 13.41930664 87.14111328 13.56689453 C89.48719338 13.92231264 91.71584229 14.36900575 94 15 C94 15.66 94 16.32 94 17 C61.66 17 29.32 17 -4 17 C-5.12244898 9.14285714 -5.12244898 9.14285714 -3.125 6.25 C-0.91622929 3.17284337 -0.91622929 3.17284337 0 0 Z " fill="#809DC8" transform="translate(93,208)"/>
<path d="M0 0 C2 2 2 2 2.25 5.375 C2.10701835 11.35823232 1.69846445 18.6030711 -1 24 C-0.06027344 24.08636719 0.87945312 24.17273438 1.84765625 24.26171875 C17.33585475 25.79259565 32.65619804 28.43928539 48 31 C48 31.66 48 32.32 48 33 C48.99 33.33 49.98 33.66 51 34 C50.32453125 34.06058594 49.6490625 34.12117188 48.953125 34.18359375 C48.06109375 34.26738281 47.1690625 34.35117188 46.25 34.4375 C45.36828125 34.51871094 44.4865625 34.59992188 43.578125 34.68359375 C41.08949302 34.91858193 41.08949302 34.91858193 39.10821533 35.55284119 C36.728497 36.0575866 35.08184838 35.88152216 32.69042969 35.47094727 C31.84986023 35.33072647 31.00929077 35.19050568 30.14324951 35.04603577 C29.24519592 34.88775803 28.34714233 34.72948029 27.421875 34.56640625 C26.4953009 34.40961899 25.56872681 34.25283173 24.61407471 34.09129333 C21.65802705 33.58929741 18.70405983 33.0760512 15.75 32.5625 C13.7449185 32.21995985 11.7397114 31.87815409 9.734375 31.53710938 C4.82141909 30.69991767 -0.08970113 29.85263173 -5 29 C-4.54717267 25.85334917 -4.08670416 22.70785959 -3.625 19.5625 C-3.49867187 18.68400391 -3.37234375 17.80550781 -3.2421875 16.90039062 C-2.40022482 11.19609346 -1.31374171 5.61481782 0 0 Z " fill="#1C2C42" transform="translate(116,183)"/>
<path d="M0 0 C1.30772805 3.92318416 0.60472701 5.6534447 -1.05639648 9.35229492 C-1.49024658 10.21959229 -1.92409668 11.08688965 -2.37109375 11.98046875 C-2.85779541 12.96587646 -3.34449707 13.95128418 -3.84594727 14.96655273 C-4.37115967 16.02946533 -4.89637207 17.09237793 -5.4375 18.1875 C-15.65974038 39.26944447 -23.50472379 60.86923279 -30.5546875 83.171875 C-30.76526291 83.83562637 -30.97583832 84.49937775 -31.1927948 85.1832428 C-32.19643593 88.36673194 -33.15645523 91.55167286 -34.06738281 94.76367188 C-34.39834961 95.91931641 -34.72931641 97.07496094 -35.0703125 98.265625 C-35.34891113 99.27915039 -35.62750977 100.29267578 -35.91455078 101.33691406 C-37.1292652 104.31714458 -38.59474144 105.89907008 -41 108 C-39.53432706 99.05939504 -36.79717167 90.5957425 -33.98193359 82.01025391 C-32.89628919 78.68206011 -31.83368309 75.34684376 -30.76953125 72.01171875 C-22.72230532 47.05521453 -13.1553343 22.75439142 0 0 Z " fill="#152234" transform="translate(129,110)"/>
<path d="M0 0 C0.66 0 1.32 0 2 0 C1.4317423 6.55329449 -0.79440726 12.19642492 -3.125 18.3125 C-6.5025665 27.41939496 -9.43861002 36.55074824 -11.9375 45.9375 C-12.21932129 46.99557861 -12.50114258 48.05365723 -12.79150391 49.14379883 C-14.41555447 55.39117866 -15.81325253 61.6551614 -17 68 C-20.45881168 62.16854575 -18.66375721 55.85226414 -17.19482422 49.54003906 C-16.17005939 45.71568003 -15.07345619 41.91736928 -13.9375 38.125 C-13.73946777 37.45200867 -13.54143555 36.77901733 -13.33740234 36.08563232 C-3.84042938 3.84042938 -3.84042938 3.84042938 0 0 Z " fill="#1A283C" transform="translate(136,121)"/>
<path d="M0 0 C2.18994248 3.28491373 2.35277339 4.83095639 2.625 8.6875 C2.69976562 9.68136719 2.77453125 10.67523438 2.8515625 11.69921875 C2.92503906 12.83810547 2.92503906 12.83810547 3 14 C3.72703125 14.04898438 4.4540625 14.09796875 5.203125 14.1484375 C12.5589333 14.69540786 19.74522224 15.67510264 27 17 C27.33 18.32 27.66 19.64 28 21 C20.41 21.33 12.82 21.66 5 22 C5.33 24.64 5.66 27.28 6 30 C4.68 29.67 3.36 29.34 2 29 C0.71153094 19.29046527 -0.34057669 9.81996112 0 0 Z " fill="#18263A" transform="translate(197,206)"/>
<path d="M0 0 C0.99 0.33 1.98 0.66 3 1 C2.54554036 2.41791408 2.08625056 3.83428046 1.625 5.25 C1.36976562 6.03890625 1.11453125 6.8278125 0.8515625 7.640625 C0 10 0 10 -1.1015625 12.171875 C-2.14702216 13.95966379 -2.14702216 13.95966379 -2 16 C-1.18501541 15.9285376 -0.37003082 15.8570752 0.46965027 15.78344727 C9.20367646 15.08113387 17.8419324 14.87544614 26.59856606 14.92483521 C28.92291293 14.93783347 31.24720151 14.94417069 33.57157898 14.94897461 C38.4852462 14.96026213 43.39886341 14.97957857 48.3125 15 C54.05677604 15.02363328 59.80102653 15.04394225 65.54533958 15.05593872 C67.83717319 15.0624261 70.12892437 15.0749185 72.42073059 15.08764648 C73.81084115 15.09127501 75.20095246 15.09462723 76.59106445 15.09765625 C78.41635429 15.10551147 78.41635429 15.10551147 80.27851868 15.11352539 C82.91448887 15.31118491 82.91448887 15.31118491 84 14 C85.69141656 14.08963062 87.37959602 14.24577676 89.0625 14.4375 C89.98160156 14.53933594 90.90070313 14.64117187 91.84765625 14.74609375 C92.55792969 14.82988281 93.26820313 14.91367188 94 15 C94 15.66 94 16.32 94 17 C61.66 17 29.32 17 -4 17 C-5.12244898 9.14285714 -5.12244898 9.14285714 -3.125 6.25 C-0.91622929 3.17284337 -0.91622929 3.17284337 0 0 Z " fill="#466BA0" transform="translate(93,208)"/>
<path d="M0 0 C-0.34007004 6.91475744 -1.6777529 13.37290838 -3.375 20.0625 C-3.58406982 20.92012939 -3.79313965 21.77775879 -4.00854492 22.66137695 C-4.21970947 23.46534912 -4.43087402 24.26932129 -4.6484375 25.09765625 C-4.83583496 25.82476807 -5.02323242 26.55187988 -5.21630859 27.30102539 C-5.47492676 27.86168701 -5.73354492 28.42234863 -6 29 C-6.99 29.33 -7.98 29.66 -9 30 C-9 21.75 -9 13.5 -9 5 C-8.34 5 -7.68 5 -7 5 C-7 4.01 -7 3.02 -7 2 C-4 0 -4 0 0 0 Z " fill="#1D2E46" transform="translate(67,110)"/>
<path d="M0 0 C12.12015381 5.24114759 20.84577346 20.44915673 28 31 C28.54140625 31.73605469 29.0828125 32.47210938 29.640625 33.23046875 C36.57140879 43.15703525 40.63238166 54.78155229 45 66 C45.44730469 67.14855469 45.89460938 68.29710937 46.35546875 69.48046875 C47.04956292 72.19374594 46.76903193 73.37736828 46 76 C45.81526123 75.4738208 45.63052246 74.9476416 45.44018555 74.40551758 C36.50222248 49.25374732 24.56160557 28.18166831 6.8828125 8.27734375 C4.4953557 5.5881411 2.21691762 2.83272806 0 0 Z " fill="#AFC1DC" transform="translate(137,112)"/>
<path d="M0 0 C1.50433594 0.01353516 1.50433594 0.01353516 3.0390625 0.02734375 C3.80992187 0.03894531 4.58078125 0.05054688 5.375 0.0625 C5.375 0.7225 5.375 1.3825 5.375 2.0625 C6.365 2.3925 7.355 2.7225 8.375 3.0625 C8.045 3.7225 7.715 4.3825 7.375 5.0625 C6.50875 4.5675 5.6425 4.0725 4.75 3.5625 C1.13027463 1.95373317 -0.72848102 1.49425765 -4.625 2.0625 C-7.1897293 3.56262468 -9.51683465 4.95433465 -11.625 7.0625 C-12.30364395 16.3652346 -12.30364395 16.3652346 -9.625 25.0625 C-5.33584691 27.87725671 0.37042344 27.69323027 5.375 28.0625 C5.045 28.7225 4.715 29.3825 4.375 30.0625 C-6.91729617 30.33419434 -6.91729617 30.33419434 -11.01171875 27.28515625 C-14.72081542 22.9850924 -16.77005002 19.90975744 -16.8125 14.1875 C-16.82667969 13.32382813 -16.84085938 12.46015625 -16.85546875 11.5703125 C-16.60611425 8.85699741 -16.12850395 7.32505449 -14.625 5.0625 C-9.9416193 1.5831016 -5.75861943 -0.06696069 0 0 Z " fill="#1A293F" transform="translate(146.625,162.9375)"/>
<path d="M0 0 C-2.52956528 3.0916909 -5.22454612 3.90931332 -9 5 C-9 5.99 -9 6.98 -9 8 C-8.505 7.814375 -8.01 7.62875 -7.5 7.4375 C-4.60028207 6.93004936 -2.1185839 7.37261686 0.77539062 7.76196289 C4.35313312 8.14478762 7.90685322 8.06544894 11.5 8 C17.1156593 7.89771112 22.43482012 8.19781191 28 9 C28 9.33 28 9.66 28 10 C12.16 10 -3.68 10 -20 10 C-19 6 -19 6 -17.46533203 4.88745117 C-16.81935059 4.60877197 -16.17336914 4.33009277 -15.5078125 4.04296875 C-14.45013672 3.58180664 -14.45013672 3.58180664 -13.37109375 3.11132812 C-12.25927734 2.6540332 -12.25927734 2.6540332 -11.125 2.1875 C-10.39152344 1.86330078 -9.65804687 1.53910156 -8.90234375 1.20507812 C-3.40242347 -1.13414116 -3.40242347 -1.13414116 0 0 Z " fill="#1E2F48" transform="translate(51,243)"/>
<path d="M0 0 C0.66 0 1.32 0 2 0 C0.57495121 4.1326415 -1.44152421 7.12634197 -4.125 10.5625 C-8.70457163 16.53746785 -12.8926265 22.68785107 -17 29 C-17.99 28.34 -18.98 27.68 -20 27 C-19.57872939 22.06380744 -17.05181761 19.24058865 -13.875 15.6875 C-13.38016113 15.1193457 -12.88532227 14.55119141 -12.37548828 13.96582031 C-10.92495572 12.30334856 -9.46298528 10.65150901 -8 9 C-6.62467764 7.41694666 -5.2496133 5.83366907 -3.875 4.25 C-1.17241379 1.17241379 -1.17241379 1.17241379 0 0 Z " fill="#283E5E" transform="translate(169,61)"/>
<path d="M0 0 C2.03125 0.0859375 2.03125 0.0859375 4.5 0.375 C5.3146875 0.46523437 6.129375 0.55546875 6.96875 0.6484375 C9 1 9 1 10 2 C10.04092937 4.33297433 10.04241723 6.66705225 10 9 C9.34 9 8.68 9 8 9 C7.67 9.99 7.34 10.98 7 12 C1.59567654 12.48038431 1.59567654 12.48038431 -0.9375 10.4375 C-2.43293548 7.00679507 -1.81224579 4.5874189 -1 1 C-0.67 0.67 -0.34 0.34 0 0 Z " fill="#5879A9" transform="translate(144,173)"/>
<path d="M0 0 C0 3.17370278 -0.30933342 4.3794668 -2 7 C-3.31403276 7.70394612 -4.6520257 8.36345658 -6 9 C-10.26190092 12.15010068 -13.14437114 15.38140127 -16.21484375 19.671875 C-19.19952739 23.5643727 -22.58498295 27.09419695 -25.92578125 30.6796875 C-28.01640168 32.81389508 -28.01640168 32.81389508 -29 35 C-30.97522846 36.04808041 -32.97481509 37.0520411 -35 38 C-33.47920927 34.49172085 -31.4004327 32.04728354 -28.8125 29.25 C-25.99528636 26.18116919 -23.20845005 23.1026442 -20.5 19.9375 C-14.20309282 12.72441464 -7.29956151 6.18573196 0 0 Z " fill="#152133" transform="translate(186,41)"/>
<path d="M0 0 C4.29 0.66 8.58 1.32 13 2 C13 2.33 13 2.66 13 3 C11.35 3.33 9.7 3.66 8 4 C15.425 4.99 15.425 4.99 23 6 C23 6.99 23 7.98 23 9 C15.32870953 8.65239465 7.86014524 7.95299249 0.3125 6.5625 C-0.37005859 6.44028076 -1.05261719 6.31806152 -1.75585938 6.19213867 C-5.08388065 5.54869335 -7.13611279 4.90925814 -10 3 C-6.7 2.67 -3.4 2.34 0 2 C0 1.34 0 0.68 0 0 Z " fill="#1A293F" transform="translate(164,214)"/>
<path d="M0 0 C0.66 0 1.32 0 2 0 C3.62931278 5.60076267 4.99879006 11.14994391 4 17 C2.125 19.0625 2.125 19.0625 0 20 C-0.66 20 -1.32 20 -2 20 C-2.53394179 18.5882217 -3.05165104 17.17029756 -3.5625 15.75 C-3.85253906 14.96109375 -4.14257812 14.1721875 -4.44140625 13.359375 C-5.04522837 10.80896548 -4.8473932 9.44677771 -4 7 C-3.01 7.33 -2.02 7.66 -1 8 C-0.67 5.36 -0.34 2.72 0 0 Z " fill="#6587BA" transform="translate(188,180)"/>
<path d="M0 0 C0.66 0 1.32 0 2 0 C2.78482206 8.98185246 2.78482206 8.98185246 -0.3125 13 C-6.09968693 17.30674376 -9.88567711 17.71662523 -17 17 C-20.1875 15.5 -20.1875 15.5 -22 14 C-21.67 13.34 -21.34 12.68 -21 12 C-19.6696875 12.7115625 -19.6696875 12.7115625 -18.3125 13.4375 C-15.42957244 14.79737149 -13.12389377 15.54060386 -10 16 C-9.67 15.01 -9.34 14.02 -9 13 C-7.7934375 12.38125 -7.7934375 12.38125 -6.5625 11.75 C-3.06785323 9.36341196 -2.83729617 7.03424517 -2 3 C-1.34 3 -0.68 3 0 3 C0 2.01 0 1.02 0 0 Z " fill="#253A58" transform="translate(159,174)"/>
<path d="M0 0 C2.81542084 1.3964936 3.89597168 2.50838751 6 5 C5.875 8.3125 5.875 8.3125 5 11 C3 9.1875 3 9.1875 1 7 C1 6.01 1 5.02 1 4 C-5.81495523 2.50231961 -5.81495523 2.50231961 -12.2890625 4.26953125 C-13.99176742 5.76552919 -15.53360766 7.27336055 -17 9 C-16.70179167 5.42150008 -16.25754642 4.23773516 -13.5625 1.75 C-8.81506986 -1.49214741 -5.53390907 -1.34183414 0 0 Z " fill="#263B5A" transform="translate(151,165)"/>
<path d="M0 0 C0.70705078 0.08314453 1.41410156 0.16628906 2.14257812 0.25195312 C5.75883795 0.71714336 8.8090765 1.26169125 11.9375 3.1875 C9.5334164 5.5915836 3.3539749 4.37296536 0.125 4.375 C-0.88626953 4.38724609 -1.89753906 4.39949219 -2.93945312 4.41210938 C-3.91462891 4.41404297 -4.88980469 4.41597656 -5.89453125 4.41796875 C-6.78889893 4.42207764 -7.6832666 4.42618652 -8.60473633 4.43041992 C-11.19988757 4.17392092 -12.8302404 3.49942779 -15.0625 2.1875 C-10.8524747 -2.0225253 -5.47735564 -0.73801217 0 0 Z " fill="#6689BD" transform="translate(165.0625,219.8125)"/>
<path d="M0 0 C2.62187494 1.04874998 3.79371361 1.64931313 5.25 4.125 C5.4975 4.74375 5.745 5.3625 6 6 C4.66666667 8 3.33333333 10 2 12 C0.0546875 12.29296875 0.0546875 12.29296875 -2.125 12.1875 C-4.043125 12.0946875 -4.043125 12.0946875 -6 12 C-4.68139111 7.38486888 -2.78644563 3.90102388 0 0 Z " fill="#99B0D3" transform="translate(131,113)"/>
<path d="M0 0 C2.08326131 -0.02709444 4.16662441 -0.04643873 6.25 -0.0625 C7.41015625 -0.07410156 8.5703125 -0.08570313 9.765625 -0.09765625 C12.40977128 -0.01782092 14.49826091 0.21356222 17 1 C17 1.66 17 2.32 17 3 C17.99 3.33 18.98 3.66 20 4 C18.98679688 4.09087891 18.98679688 4.09087891 17.953125 4.18359375 C17.06109375 4.26738281 16.1690625 4.35117188 15.25 4.4375 C14.36828125 4.51871094 13.4865625 4.59992188 12.578125 4.68359375 C10.05647113 4.92607528 10.05647113 4.92607528 7.90625 5.59375 C4.72778905 6.27112692 2.01884521 4.98693017 -1 4 C-0.67 2.68 -0.34 1.36 0 0 Z " fill="#21334F" transform="translate(147,213)"/>
<path d="M0 0 C3.65880741 1.5692787 6.25527628 3.8319796 9.1875 6.5 C10.06792969 7.2940625 10.94835937 8.088125 11.85546875 8.90625 C14 11 14 11 15 13 C14.67 13.66 14.34 14.32 14 15 C13.01 15 12.02 15 11 15 C10.67 14.34 10.34 13.68 10 13 C7.47266765 12.34444881 7.47266765 12.34444881 5 12 C4.9175 11.2575 4.835 10.515 4.75 9.75 C3.85566215 6.47076121 2.40099388 5.32354246 0 3 C0 2.01 0 1.02 0 0 Z " fill="#21334E" transform="translate(131,109)"/>
<path d="M0 0 C2.97 0.495 2.97 0.495 6 1 C6 1.33 6 1.66 6 2 C4.02 2.66 2.04 3.32 0 4 C0.99 4.66 1.98 5.32 3 6 C-6.24 6 -15.48 6 -25 6 C-21 4 -21 4 -18.75 4.375 C-18.1725 4.58125 -17.595 4.7875 -17 5 C-17 4.34 -17 3.68 -17 3 C-11.72 3 -6.44 3 -1 3 C-0.67 2.01 -0.34 1.02 0 0 Z " fill="#7292C2" transform="translate(151,218)"/>
<path d="M0 0 C0.33 0 0.66 0 1 0 C1.33 4.29 1.66 8.58 2 13 C0 14 -2 15 -4 16 C-4.66 13.36 -5.32 10.72 -6 8 C-2.25 5 -2.25 5 0 5 C0 3.35 0 1.7 0 0 Z " fill="#4B71AA" transform="translate(192,192)"/>
<path d="M0 0 C0.66 0 1.32 0 2 0 C1.50104522 7.15168515 -1.31563815 13.41291281 -4 20 C-4.66 19.34 -5.32 18.68 -6 18 C-5.76591202 12.38188837 -4.09091938 4.09091938 0 0 Z " fill="#19263A" transform="translate(136,121)"/>
<path d="M0 0 C0.99 0.33 1.98 0.66 3 1 C2.54554036 2.41791408 2.08625056 3.83428046 1.625 5.25 C1.36976562 6.03890625 1.11453125 6.8278125 0.8515625 7.640625 C0 10 0 10 -1.1015625 12.171875 C-2.14702216 13.95966379 -2.14702216 13.95966379 -2 16 C-0.80375 15.814375 0.3925 15.62875 1.625 15.4375 C5.28283707 14.9688803 8.37862166 15.18518987 12 16 C12 16.33 12 16.66 12 17 C6.72 17 1.44 17 -4 17 C-5.12244898 9.14285714 -5.12244898 9.14285714 -3.125 6.25 C-0.91622929 3.17284337 -0.91622929 3.17284337 0 0 Z " fill="#3B5985" transform="translate(93,208)"/>
<path d="M0 0 C3.31218291 1.33106416 6.34352678 2.68705356 8 6 C6.88625 5.5359375 6.88625 5.5359375 5.75 5.0625 C-0.33084008 2.71308451 -5.59914831 2.6386921 -12 4 C-14.73290182 5.4227994 -16.65032151 6.96361198 -19 9 C-15.72272531 1.29264042 -7.94289412 -1.57721153 0 0 Z " fill="#0E1622" transform="translate(152,159)"/>
<path d="M0 0 C1.00979452 3.02938356 1.01385583 4.0609337 0.51171875 7.08984375 C0.38216797 7.87423828 0.25261719 8.65863281 0.11914062 9.46679688 C-0.02330078 10.28212891 -0.16574219 11.09746094 -0.3125 11.9375 C-0.44333984 12.74896484 -0.57417969 13.56042969 -0.70898438 14.39648438 C-1.37380098 18.31151549 -2.08640562 21.48292334 -4 25 C-4.66 25 -5.32 25 -6 25 C-3.63888889 7.27777778 -3.63888889 7.27777778 0 0 Z " fill="#233754" transform="translate(64,115)"/>
<path d="M0 0 C0 0.33 0 0.66 0 1 C-8.04456097 0.29563752 -16.01350895 -0.81468505 -24 -2 C-24 -2.66 -24 -3.32 -24 -4 C-16.3451765 -6.4980776 -7.24046441 -2.68165348 0 0 Z " fill="#243957" transform="translate(224,225)"/>
<path d="M0 0 C1.17632556 3.52897669 0.74268202 4.78723579 -0.21484375 8.32421875 C-0.48876953 9.35224609 -0.76269531 10.38027344 -1.04492188 11.43945312 C-1.33947266 12.51130859 -1.63402344 13.58316406 -1.9375 14.6875 C-2.22818359 15.77095703 -2.51886719 16.85441406 -2.81835938 17.97070312 C-3.5381418 20.64923773 -4.26562605 23.32543603 -5 26 C-5.98914557 22.57435615 -5.71468446 20.48408676 -5 17 C-5.33 16.01 -5.66 15.02 -6 14 C-5.73046875 11.9921875 -5.73046875 11.9921875 -5.1875 9.875 C-4.93033203 8.81925781 -4.93033203 8.81925781 -4.66796875 7.7421875 C-4 6 -4 6 -2 5 C-1.27840576 3.35636866 -0.60648579 1.68949614 0 0 Z " fill="#1A293F" transform="translate(73,84)"/>
<path d="M0 0 C1.69141656 0.08963062 3.37959602 0.24577676 5.0625 0.4375 C6.44115234 0.59025391 6.44115234 0.59025391 7.84765625 0.74609375 C8.55792969 0.82988281 9.26820313 0.91367188 10 1 C10 1.66 10 2.32 10 3 C-0.89 3 -11.78 3 -23 3 C-23 2.67 -23 2.34 -23 2 C-22.00818726 1.96241577 -22.00818726 1.96241577 -20.99633789 1.92407227 C-18.01817695 1.80846898 -15.0403608 1.68558246 -12.0625 1.5625 C-10.50112305 1.50352539 -10.50112305 1.50352539 -8.90820312 1.44335938 C-7.42416992 1.38051758 -7.42416992 1.38051758 -5.91015625 1.31640625 C-4.53549194 1.26141968 -4.53549194 1.26141968 -3.13305664 1.20532227 C-1.0179272 1.22996136 -1.0179272 1.22996136 0 0 Z " fill="#3D5E90" transform="translate(177,222)"/>
<path d="M0 0 C1.4370809 -0.05422947 2.87475462 -0.09289723 4.3125 -0.125 C5.11300781 -0.14820313 5.91351563 -0.17140625 6.73828125 -0.1953125 C9 0 9 0 12 2 C7.50700937 5.47844436 3.45192731 5.53089929 -2 5 C-2.99 4.67 -3.98 4.34 -5 4 C-5 3.34 -5 2.68 -5 2 C-3.35 1.67 -1.7 1.34 0 1 C0 0.67 0 0.34 0 0 Z " fill="#19273C" transform="translate(124,209)"/>
<path d="M0 0 C1.60875 0.185625 1.60875 0.185625 3.25 0.375 C3.91 1.695 4.57 3.015 5.25 4.375 C2.61 4.375 -0.03 4.375 -2.75 4.375 C-3.79214691 8.99007774 -3.79214691 8.99007774 -2.75 13.375 C-5.75 12.375 -5.75 12.375 -7.1875 9.6875 C-7.75 6.375 -7.75 6.375 -6.3125 3 C-3.75 0.375 -3.75 0.375 0 0 Z " fill="#3B5B8A" transform="translate(146.75,169.625)"/>
<path d="M0 0 C0.66 0 1.32 0 2 0 C2.78482206 8.98185246 2.78482206 8.98185246 -0.3125 13 C-2.17187548 14.38372129 -4.07151601 15.71434401 -6 17 C-8.1875 16.625 -8.1875 16.625 -10 16 C-9.05125 15.7525 -8.1025 15.505 -7.125 15.25 C-3.96244601 14.32725623 -3.96244601 14.32725623 -2.75 12.125 C-2.5025 11.42375 -2.255 10.7225 -2 10 C-1.62875 9.38125 -1.2575 8.7625 -0.875 8.125 C0.26915841 5.34632958 0.13516968 2.97373305 0 0 Z " fill="#20334D" transform="translate(159,174)"/>
<path d="M0 0 C0.66 0 1.32 0 2 0 C2.53394179 1.4117783 3.05165104 2.82970244 3.5625 4.25 C3.85253906 5.03890625 4.14257812 5.8278125 4.44140625 6.640625 C5.04522837 9.19103452 4.8473932 10.55322229 4 13 C3.34 13 2.68 13 2 13 C1.67 11.35 1.34 9.7 1 8 C0.34 8 -0.32 8 -1 8 C-1.125 2.25 -1.125 2.25 0 0 Z " fill="#20314B" transform="translate(177,174)"/>
<path d="M0 0 C1.2065625 0.0309375 1.2065625 0.0309375 2.4375 0.0625 C3.0625 2.4375 3.0625 2.4375 3.4375 5.0625 C2.7775 5.7225 2.1175 6.3825 1.4375 7.0625 C-0.6875 6.6875 -0.6875 6.6875 -2.5625 6.0625 C-2.94468767 4.40635343 -3.27645102 2.73792976 -3.5625 1.0625 C-2.5625 0.0625 -2.5625 0.0625 0 0 Z " fill="#E5EAF3" transform="translate(147.5625,173.9375)"/>
<path d="M0 0 C7.78553134 3.33665629 13.44954517 11.10092332 18 18 C17.01 18 16.02 18 15 18 C12.94921875 15.83984375 12.94921875 15.83984375 10.6875 12.9375 C9.50414062 11.44089844 9.50414062 11.44089844 8.296875 9.9140625 C7.53890625 8.95242187 6.7809375 7.99078125 6 7 C4.0231127 4.64541473 2.01359836 2.32338272 0 0 Z " fill="#7D9AC5" transform="translate(137,112)"/>
<path d="M0 0 C1.08667969 0.20367187 2.17335937 0.40734375 3.29296875 0.6171875 C4.54013672 0.86855469 4.54013672 0.86855469 5.8125 1.125 C5.4825 1.785 5.1525 2.445 4.8125 3.125 C2.85446493 3.17889087 0.89601091 3.21774217 -1.0625 3.25 C-2.15304688 3.27320313 -3.24359375 3.29640625 -4.3671875 3.3203125 C-7.1875 3.125 -7.1875 3.125 -9.1875 1.125 C-5.43214902 -1.37856732 -4.31860586 -0.8358592 0 0 Z " fill="#587EB6" transform="translate(171.1875,220.875)"/>
<path d="M0 0 C3.43331891 2.68351363 4.10728535 5.9066938 5.25 10 C5.60578125 11.2375 5.9615625 12.475 6.328125 13.75 C7 17 7 17 6 20 C5.67 18.35 5.34 16.7 5 15 C4.01 14.67 3.02 14.34 2 14 C1.25 12 1.25 12 1 10 C1.33 9.67 1.66 9.34 2 9 C1.74804092 7.46797294 1.42403223 5.94742872 1.0625 4.4375 C0.86785156 3.61121094 0.67320312 2.78492188 0.47265625 1.93359375 C0.31667969 1.29550781 0.16070312 0.65742188 0 0 Z " fill="#7F9BC5" transform="translate(182,159)"/>
<path d="M0 0 C0.33 0.66 0.66 1.32 1 2 C1.66 2 2.32 2 3 2 C1.8141763 5.37503669 0.72426311 7.64722731 -2 10 C-2.66 9.34 -3.32 8.68 -4 8 C-3.77256695 5.04337034 -3.38764062 3.44966312 -1.4375 1.1875 C-0.963125 0.795625 -0.48875 0.40375 0 0 Z " fill="#35537E" transform="translate(153,80)"/>
<path d="M0 0 C0 3.17370278 -0.30933342 4.3794668 -2 7 C-2.60199219 7.29519531 -3.20398438 7.59039062 -3.82421875 7.89453125 C-7.08251513 9.5500032 -9.45136502 12.05022813 -12.09765625 14.5390625 C-14 16 -14 16 -17 16 C-11.53105379 10.41711741 -5.96348734 5.05352742 0 0 Z " fill="#0F1724" transform="translate(186,41)"/>
<path d="M0 0 C0 0.66 0 1.32 0 2 C0.99 2.33 1.98 2.66 3 3 C-3.35987804 3.20190089 -8.85221129 2.6277833 -15 1 C-15 0.67 -15 0.34 -15 0 C-9.62374766 -0.84888195 -5.34629602 -1.0024305 0 0 Z " fill="#243855" transform="translate(184,217)"/>
<path d="M0 0 C0.66 0 1.32 0 2 0 C0.6302836 3.99500618 -1.25722422 6.80009492 -4 10 C-4.99 9.01 -5.98 8.02 -7 7 C-4.66666667 4.66666667 -2.33333333 2.33333333 0 0 Z " fill="#2D466B" transform="translate(160,73)"/>
<path d="M0 0 C3.3 0.33 6.6 0.66 10 1 C10 1.66 10 2.32 10 3 C11.98 3 13.96 3 16 3 C16 3.33 16 3.66 16 4 C10.54230189 4.11138159 5.38490641 3.91657981 0 3 C0 2.01 0 1.02 0 0 Z " fill="#20324D" transform="translate(114,207)"/>
<path d="M0 0 C0 0.66 0 1.32 0 2 C0.99 2.33 1.98 2.66 3 3 C-2.52677733 3.19392201 -6.75614911 2.7479503 -12 1 C-12 0.67 -12 0.34 -12 0 C-7.74433453 -1.16063604 -4.3164922 -0.76173392 0 0 Z " fill="#223552" transform="translate(143,211)"/>
<path d="M0 0 C6.93 0.495 6.93 0.495 14 1 C14 1.99 14 2.98 14 4 C12.41590006 3.88512252 10.83271037 3.75765492 9.25 3.625 C8.36828125 3.55539063 7.4865625 3.48578125 6.578125 3.4140625 C4.00933618 3.00149945 2.24158985 2.28839043 0 1 C0 0.67 0 0.34 0 0 Z " fill="#162336" transform="translate(173,219)"/>
<path d="M0 0 C2.18994248 3.28491373 2.35277339 4.83095639 2.625 8.6875 C2.69976562 9.68136719 2.77453125 10.67523438 2.8515625 11.69921875 C2.92503906 12.83810547 2.92503906 12.83810547 3 14 C4.32 14.33 5.64 14.66 7 15 C5.35 15 3.7 15 2 15 C1.67 15.66 1.34 16.32 1 17 C0.3583034 11.30494264 -0.12462322 5.73266804 0 0 Z " fill="#142031" transform="translate(197,206)"/>
<path d="M0 0 C0.66 0 1.32 0 2 0 C1.52346733 4.12994985 0.94969302 7.34432558 -1 11 C-1.37668344 12.65740715 -1.72057545 14.32345271 -2 16 C-2.66 15.67 -3.32 15.34 -4 15 C-3.43179252 9.54520815 -2.05362055 5.08940744 0 0 Z " fill="#D8E1EE" transform="translate(111,154)"/>
<path d="M0 0 C0.99 0.33 1.98 0.66 3 1 C3.33 2.98 3.66 4.96 4 7 C2.02 7 0.04 7 -2 7 C-2 3 -2 3 0 0 Z " fill="#87A2CB" transform="translate(131,113)"/>
<path d="M0 0 C1.05079801 2.70564758 1.09514668 3.76045423 0.00390625 6.5078125 C-0.47175781 7.37148437 -0.94742188 8.23515625 -1.4375 9.125 C-3.38336479 12.3879579 -3.38336479 12.3879579 -4 16 C-4.66 16 -5.32 16 -6 16 C-5.52412884 9.97229862 -2.80277043 5.23321711 0 0 Z " fill="#D6DFED" transform="translate(119,137)"/>
<path d="M0 0 C2.16721782 3.25082673 2.27221018 4.29232153 2.25 8.0625 C2.25515625 8.94035156 2.2603125 9.81820312 2.265625 10.72265625 C2 13 2 13 0 15 C-0.75612577 9.76528314 -1.2063366 5.22745859 0 0 Z " fill="#0F1926" transform="translate(163,169)"/>
<path d="M0 0 C0.55429688 0.42152344 1.10859375 0.84304687 1.6796875 1.27734375 C2.40414062 1.82519531 3.12859375 2.37304688 3.875 2.9375 C4.59429687 3.48277344 5.31359375 4.02804688 6.0546875 4.58984375 C7.94357079 6.03964624 7.94357079 6.03964624 10 7 C10 7.66 10 8.32 10 9 C10.99 9.33 11.98 9.66 13 10 C12.34 10.66 11.68 11.32 11 12 C10.54109375 11.52949219 10.0821875 11.05898437 9.609375 10.57421875 C5.77414308 6.66905586 5.77414308 6.66905586 1.5625 3.1875 C1.046875 2.795625 0.53125 2.40375 0 2 C0 1.34 0 0.68 0 0 Z " fill="#476CA1" transform="translate(125,101)"/>
<path d="M0 0 C0.66 0.33 1.32 0.66 2 1 C1.54177532 4.46941546 1.10868317 7.67395049 0 11 C-0.66 11 -1.32 11 -2 11 C-1.125 3.375 -1.125 3.375 0 0 Z " fill="#243755" transform="translate(72,78)"/>
<path d="M0 0 C-0.98469838 3.31216727 -1.62146175 4.73502323 -4.5 6.75 C-6 7.5 -7.5 8.25 -9 9 C-7.45665977 5.21180126 -4.44676575 0 0 0 Z " fill="#223652" transform="translate(171,61)"/>
<path d="M0 0 C0.99 0.99 1.98 1.98 3 3 C2.34 4.98 1.68 6.96 1 9 C-0.5625 7.1875 -0.5625 7.1875 -2 5 C-1 2 -1 2 0 0 Z " fill="#19273B" transform="translate(175,169)"/>
<path d="M0 0 C3.08089673 2.77280706 4.68775452 5.06326356 6 9 C0.125 5.375 0.125 5.375 -1 2 C-0.67 1.34 -0.34 0.68 0 0 Z " fill="#131E2F" transform="translate(156,97)"/>
<path d="M0 0 C2.84880302 4.27320453 4.28990619 6.78168857 4 12 C3.01 12.495 3.01 12.495 2 13 C-0.28571429 4.57142857 -0.28571429 4.57142857 0 0 Z " fill="#1E2F47" transform="translate(194,199)"/>
<path d="M0 0 C1.41687119 4.25061356 0.19320039 6.71851625 -1 11 C-3 8 -3 8 -2.75 4.375 C-2.5025 3.26125 -2.255 2.1475 -2 1 C-1.34 0.67 -0.68 0.34 0 0 Z " fill="#121C2B" transform="translate(125,157)"/>
<path d="M0 0 C1.45047396 2.90094791 0.45356803 4.55972596 -0.4375 7.625 C-0.72496094 8.62789062 -1.01242188 9.63078125 -1.30859375 10.6640625 C-1.53675781 11.43492187 -1.76492187 12.20578125 -2 13 C-2.33 13 -2.66 13 -3 13 C-3.31563182 7.73946963 -2.66590937 4.55426184 0 0 Z " fill="#C1CFE4" transform="translate(106,170)"/>
<path d="M0 0 C3.77300358 1.0197307 4.80206144 1.65872662 6.8125 5.125 C7.204375 6.07375 7.59625 7.0225 8 8 C4.63820226 6.55922954 2.40843732 4.75249979 0 2 C0 1.34 0 0.68 0 0 Z " fill="#131E2E" transform="translate(132,184)"/>
<path d="M0 0 C0.66 0 1.32 0 2 0 C1.25 6.75 1.25 6.75 -1 9 C-1.09765625 2.84765625 -1.09765625 2.84765625 -1 1 C-0.67 0.67 -0.34 0.34 0 0 Z " fill="#131E2E" transform="translate(136,121)"/>
<path d="M0 0 C0 0.99 0 1.98 0 3 C-2.5 5.1875 -2.5 5.1875 -5 7 C-5.66 6.34 -6.32 5.68 -7 5 C-4.69 3.35 -2.38 1.7 0 0 Z " fill="#152133" transform="translate(209,24)"/>
<path d="M0 0 C0.66 0.66 1.32 1.32 2 2 C1.8125 4.5 1.8125 4.5 1 7 C0.01 7.66 -0.98 8.32 -2 9 C-1.34 6.03 -0.68 3.06 0 0 Z " fill="#6E8EBD" transform="translate(96,198)"/>
<path d="M0 0 C2.97 1.98 2.97 1.98 6 4 C5.01 4.495 5.01 4.495 4 5 C3.67 5.66 3.34 6.32 3 7 C1.68 5.68 0.36 4.36 -1 3 C-0.67 2.01 -0.34 1.02 0 0 Z " fill="#142030" transform="translate(79,17)"/>
<path d="M0 0 C0.66 0.66 1.32 1.32 2 2 C1.625 5.125 1.625 5.125 1 8 C0.01 8.33 -0.98 8.66 -2 9 C-1.34 6.03 -0.68 3.06 0 0 Z " fill="#121C2B" transform="translate(101,173)"/>
<path d="M0 0 C2.4375 0.6875 2.4375 0.6875 5 2 C5.8125 4.625 5.8125 4.625 6 7 C5.01 7.495 5.01 7.495 4 8 C2.68 5.36 1.36 2.72 0 0 Z " fill="#1A293E" transform="translate(158,104)"/>
<path d="M0 0 C0 3.15081975 -0.27898465 4.41847698 -2 7 C-4.125 7.75 -4.125 7.75 -6 8 C-4.55746343 4.63408134 -2.66735273 2.48952921 0 0 Z " fill="#142031" transform="translate(186,41)"/>
<path d="M0 0 C2.31 0 4.62 0 7 0 C4.33440687 1.77706209 1.9719385 2.87548273 -1 4 C-0.67 2.68 -0.34 1.36 0 0 Z " fill="#233652" transform="translate(32,249)"/>
<path d="M0 0 C-0.33 0.66 -0.66 1.32 -1 2 C-3.875 2.125 -3.875 2.125 -7 2 C-7.66 1.34 -8.32 0.68 -9 0 C-5.52176885 -1.15941038 -3.54104422 -0.70820884 0 0 Z " fill="#4E76B1" transform="translate(177,222)"/>
<path d="M0 0 C2.12508244 3.18762365 2.5020163 5.26512223 3 9 C2.01 8.67 1.02 8.34 0 8 C-0.79953138 4.71303767 -1.09658936 3.28976808 0 0 Z " fill="#131D2D" transform="translate(184,153)"/>
<path d="M0 0 C0.66 0.33 1.32 0.66 2 1 C2 2.65 2 4.3 2 6 C1.01 6 0.02 6 -1 6 C-1.625 4.125 -1.625 4.125 -2 2 C-1.34 1.34 -0.68 0.68 0 0 Z " fill="#162335" transform="translate(168,154)"/>
<path d="M0 0 C2.3125 -0.3125 2.3125 -0.3125 5 0 C6.8125 2.5 6.8125 2.5 8 5 C7.34 5 6.68 5 6 5 C5.67 4.34 5.34 3.68 5 3 C2.47266765 2.34444881 2.47266765 2.34444881 0 2 C0 1.34 0 0.68 0 0 Z " fill="#1B2A41" transform="translate(136,119)"/>
</svg>
